<svg width="29" height="29" viewBox="0 0 29 29" fill="none" xmlns="http://www.w3.org/2000/svg">
<path d="M18.2542 22.7493C17.8328 22.7493 17.467 22.436 17.4124 22.007C17.3533 21.5414 17.6825 21.1162 18.1478 21.0569C20.8325 20.7148 23.2366 19.9874 24.9173 19.0081C26.4543 18.1127 27.3006 17.06 27.3006 16.044C27.3006 14.9242 26.3103 14.008 25.4792 13.4363C25.0927 13.1704 24.9949 12.6416 25.2609 12.2548C25.5268 11.8683 26.0558 11.7705 26.4424 12.0364C28.1155 13.1874 28.9998 14.5731 28.9998 16.0442C28.9998 17.7138 27.884 19.2464 25.7729 20.4763C23.8725 21.5835 21.3102 22.3672 18.3627 22.7426C18.3261 22.7471 18.2899 22.7493 18.2542 22.7493Z" fill="#303F86" fill-opacity="0.8"/>
<path d="M14.2929 21.5322L12.0273 19.2666C11.6954 18.9347 11.1575 18.9347 10.8257 19.2666C10.494 19.5982 10.494 20.1363 10.8257 20.468L11.4876 21.13C8.94944 20.8678 6.64355 20.2768 4.85804 19.4181C2.85062 18.4528 1.69922 17.2229 1.69922 16.044C1.69922 15.0442 2.52361 14.005 4.02038 13.1178C4.42416 12.8786 4.55736 12.3573 4.31818 11.9537C4.07879 11.55 3.55752 11.4168 3.15395 11.6559C0.547157 13.2012 0 14.8951 0 16.044C0 17.9291 1.46381 19.6712 4.12171 20.9496C6.18467 21.9415 8.8532 22.6059 11.7605 22.863L10.8257 23.7978C10.494 24.1295 10.494 24.6676 10.8257 24.9994C10.9916 25.1652 11.2091 25.2481 11.4266 25.2481C11.6439 25.2481 11.8613 25.1652 12.0273 24.9994L14.2929 22.7338C14.6246 22.4019 14.6246 21.8639 14.2929 21.5322Z" fill="#303F86" fill-opacity="0.8"/>
<path d="M8.89803 14.3425V14.1381C8.89803 13.417 8.45663 13.2772 7.86478 13.2772C7.49883 13.2772 7.38046 12.9544 7.38046 12.6316C7.38046 12.3085 7.49883 11.9857 7.86478 11.9857C8.27366 11.9857 8.70422 11.932 8.70422 11.0602C8.70422 10.4361 8.34911 10.2854 7.90771 10.2854C7.38046 10.2854 7.11142 10.4146 7.11142 10.8343C7.11142 11.2 6.94991 11.4476 6.32575 11.4476C5.55093 11.4476 5.45424 11.2861 5.45424 10.7695C5.45424 9.93028 6.05671 8.84326 7.90771 8.84326C9.2746 8.84326 10.3076 9.3382 10.3076 10.7912C10.3076 11.5766 10.0171 12.3085 9.47904 12.5561C10.114 12.7928 10.5767 13.2663 10.5767 14.1381V14.3425C10.5767 16.1074 9.36067 16.7747 7.85394 16.7747C6.00294 16.7747 5.29272 15.6448 5.29272 14.7408C5.29272 14.2564 5.49716 14.1272 6.08901 14.1272C6.77777 14.1272 6.94991 14.2779 6.94991 14.687C6.94991 15.1928 7.42361 15.3111 7.90771 15.3111C8.63961 15.3111 8.89803 15.0421 8.89803 14.3425Z" fill="#303F86" fill-opacity="0.8"/>
<path d="M17.1094 14.1381V14.235C17.1094 16.086 15.9577 16.7747 14.4727 16.7747C12.9877 16.7747 11.8252 16.086 11.8252 14.235V11.383C11.8252 9.53202 13.0197 8.84326 14.5696 8.84326C16.3883 8.84326 17.1094 9.9732 17.1094 10.8664C17.1094 11.383 16.8618 11.5443 16.3237 11.5443C15.8611 11.5443 15.452 11.4259 15.452 10.931C15.452 10.5221 15.0216 10.3068 14.5158 10.3068C13.8809 10.3068 13.5041 10.6405 13.5041 11.383V12.3514C13.8485 11.9749 14.3329 11.878 14.8495 11.878C16.0761 11.878 17.1094 12.4161 17.1094 14.1381ZM13.5041 14.3533C13.5041 15.0959 13.87 15.4187 14.4727 15.4187C15.0754 15.4187 15.4305 15.0959 15.4305 14.3533V14.2564C15.4305 13.4708 15.0754 13.1694 14.4619 13.1694C13.8809 13.1694 13.5041 13.4493 13.5041 14.1595V14.3533Z" fill="#303F86" fill-opacity="0.8"/>
<path d="M18.4111 14.235V11.383C18.4111 9.53202 19.5625 8.84326 21.0478 8.84326C22.5328 8.84326 23.6951 9.53202 23.6951 11.383V14.235C23.6951 16.086 22.5328 16.7747 21.0478 16.7747C19.5625 16.7747 18.4111 16.086 18.4111 14.235ZM22.0162 11.383C22.0162 10.6405 21.6505 10.3068 21.0478 10.3068C20.4451 10.3068 20.09 10.6405 20.09 11.383V14.235C20.09 14.9775 20.4451 15.3111 21.0478 15.3111C21.6505 15.3111 22.0162 14.9775 22.0162 14.235V11.383Z" fill="#303F86" fill-opacity="0.8"/>
<path d="M25.7349 8.83594C24.3292 8.83594 23.186 7.6925 23.186 6.28711C23.186 4.88171 24.3292 3.73828 25.7349 3.73828C27.1403 3.73828 28.2837 4.88171 28.2837 6.28711C28.2837 7.6925 27.1403 8.83594 25.7349 8.83594ZM25.7349 5.4375C25.2663 5.4375 24.8853 5.81872 24.8853 6.28711C24.8853 6.75572 25.2663 7.13672 25.7349 7.13672C26.2033 7.13672 26.5845 6.75572 26.5845 6.28711C26.5845 5.81872 26.2033 5.4375 25.7349 5.4375Z" fill="#303F86" fill-opacity="0.8"/>
</svg>
