<svg width="11" height="17" viewBox="0 0 11 17" fill="none" xmlns="http://www.w3.org/2000/svg">
<path d="M0.777473 9.16334L8.34269 16.7284C8.51766 16.9035 8.75124 17 9.00029 17C9.24935 17 9.48292 16.9035 9.65789 16.7284L10.215 16.1714C10.5775 15.8085 10.5775 15.2186 10.215 14.8562L3.86233 8.50353L10.2221 2.14378C10.397 1.96867 10.4937 1.73523 10.4937 1.48632C10.4937 1.23712 10.397 1.00368 10.2221 0.828434L9.66495 0.271585C9.48983 0.0964736 9.2564 1.79918e-06 9.00734 1.77741e-06C8.75829 1.75564e-06 8.52471 0.0964735 8.34974 0.271585L0.777473 7.84357C0.602084 8.01924 0.505752 8.25378 0.506305 8.50311C0.505752 8.75341 0.602084 8.98781 0.777473 9.16334Z" fill="black" fill-opacity="0.8"/>
</svg>
