<svg width="29" height="29" viewBox="0 0 29 29" fill="none" xmlns="http://www.w3.org/2000/svg">
<g clip-path="url(#clip0_187:38)">
<path d="M22.1503 18.6481C21.9583 18.4561 21.6469 18.4561 21.4551 18.6481L20.3769 19.7261L18.9575 18.3067C20.7972 16.3019 21.8171 13.6792 21.815 10.9581C21.815 4.947 16.922 0.0566406 10.9075 0.0566406C4.893 0.0566406 0 4.947 0 10.9581C0 16.969 4.893 21.8594 10.9075 21.8594C13.6303 21.8615 16.2549 20.8416 18.2619 19.0014L19.6817 20.4215L18.5917 21.5118C18.3997 21.7038 18.3997 22.0149 18.5917 22.2069L24.706 28.3213C24.7276 28.3431 24.749 28.3628 24.7708 28.3822C24.7797 28.3904 24.7893 28.3983 24.7982 28.4074C24.8042 28.4134 24.8104 28.4197 24.8172 28.4254C25.8354 29.3256 27.3846 29.2546 28.316 28.2646C29.2476 27.2749 29.2248 25.7243 28.2644 24.7624L22.1503 18.6481ZM10.9075 20.8761C5.43526 20.8761 0.983209 16.4272 0.983209 10.9581C0.983209 5.48902 5.43526 1.03985 10.9075 1.03985C16.3797 1.03985 20.8317 5.48926 20.8317 10.9581C20.8317 16.4267 16.3797 20.8761 10.9075 20.8761ZM27.5651 27.6304C26.9975 28.1986 26.0867 28.2293 25.4818 27.701C25.4641 27.6835 25.4463 27.6674 25.4283 27.6513C25.4194 27.6432 25.4098 27.635 25.4012 27.6261L19.6342 21.8594L21.8027 19.6911L27.5666 25.4549C28.1672 26.056 28.1665 27.0301 27.5651 27.6304Z" fill="#303F86" fill-opacity="0.8"/>
<path d="M14.5375 8.5494L12.3906 9.86987L10.0432 8.97667C9.78925 8.88018 9.50528 9.00764 9.40879 9.26136C9.31229 9.51532 9.43975 9.79929 9.69348 9.89579L11.3337 10.5199L8.08904 12.5154L7.31058 11.7079C7.18912 11.579 7.00789 11.5252 6.83578 11.5672C6.66391 11.6092 6.52781 11.7405 6.47956 11.9107C6.43131 12.0811 6.47836 12.2643 6.6027 12.3903L7.65576 13.482C7.81611 13.6481 8.07056 13.6805 8.26715 13.5595L15.0526 9.3869C15.2034 9.29545 15.2936 9.1303 15.2891 8.95411C15.2845 8.77768 15.1859 8.61733 15.0308 8.5338C14.8755 8.45026 14.6873 8.45626 14.5375 8.5494Z" fill="#303F86" fill-opacity="0.8"/>
</g>
<defs>
<clipPath id="clip0_187:38">
<rect width="29" height="29" fill="white"/>
</clipPath>
</defs>
</svg>
