<svg width="16" height="16" viewBox="0 0 16 16" fill="none" xmlns="http://www.w3.org/2000/svg">
<g clip-path="url(#clip0_187:79)">
<path d="M15.5999 6.92799C15.5994 6.92763 15.599 6.92714 15.5987 6.92677L9.07193 0.400269C8.79374 0.121949 8.42386 -0.03125 8.03043 -0.03125C7.63699 -0.03125 7.26712 0.121949 6.9888 0.400269L0.465471 6.92348C0.463274 6.92567 0.460955 6.92799 0.45888 6.93019C-0.112411 7.50478 -0.111434 8.43703 0.461687 9.01015C0.723529 9.27211 1.06923 9.42372 1.43898 9.43972C1.45412 9.44118 1.46926 9.44191 1.48452 9.44191H1.74453V14.2449C1.74453 15.1955 2.51797 15.9688 3.46853 15.9688H6.022C6.28091 15.9688 6.49075 15.7588 6.49075 15.5V11.7344C6.49075 11.3007 6.84366 10.9479 7.27737 10.9479H8.78348C9.2172 10.9479 9.56998 11.3007 9.56998 11.7344V15.5C9.56998 15.7588 9.77982 15.9688 10.0387 15.9688H12.5922C13.5429 15.9688 14.3162 15.1955 14.3162 14.2449V9.44191H14.5574C14.9507 9.44191 15.3206 9.28871 15.599 9.01027C16.1728 8.4363 16.173 7.50233 15.5999 6.92799ZM14.9361 8.34743C14.8349 8.44862 14.7004 8.50441 14.5574 8.50441H13.8475C13.5885 8.50441 13.3787 8.71425 13.3787 8.97316V14.2449C13.3787 14.6785 13.0259 15.0313 12.5922 15.0313H10.5075V11.7344C10.5075 10.7838 9.73417 10.0104 8.78348 10.0104H7.27737C6.32669 10.0104 5.55325 10.7838 5.55325 11.7344V15.0313H3.46853C3.03493 15.0313 2.68203 14.6785 2.68203 14.2449V8.97316C2.68203 8.71425 2.47219 8.50441 2.21328 8.50441H1.51552C1.5082 8.50392 1.501 8.50356 1.49355 8.50343C1.3539 8.50099 1.22292 8.44557 1.12477 8.34731C0.916034 8.13857 0.916034 7.79884 1.12477 7.58998C1.1249 7.58998 1.1249 7.58986 1.12502 7.58974L1.12538 7.58937L7.65189 1.06311C7.75296 0.961916 7.88736 0.906252 8.03043 0.906252C8.17337 0.906252 8.30777 0.961916 8.40897 1.06311L14.934 7.58803C14.935 7.589 14.9361 7.58998 14.9371 7.59096C15.1447 7.80006 15.1443 8.13905 14.9361 8.34743Z" fill="#F9F5E6" fill-opacity="0.8"/>
</g>
<defs>
<clipPath id="clip0_187:79">
<rect width="16" height="16" fill="white"/>
</clipPath>
</defs>
</svg>
