<svg width="21" height="21" viewBox="0 0 21 21" fill="none" xmlns="http://www.w3.org/2000/svg">
<g clip-path="url(#clip0_187:215)">
<path d="M15.2076 0H5.64447C2.53206 0 0 2.53206 0 5.64447V15.2078C0 18.32 2.53206 20.8521 5.64447 20.8521H15.2078C18.32 20.8521 20.8521 18.32 20.8521 15.2078V5.64447C20.8521 2.53206 18.32 0 15.2076 0V0ZM19.6297 15.2078C19.6297 17.646 17.646 19.6297 15.2076 19.6297H5.64447C3.20612 19.6297 1.22244 17.646 1.22244 15.2078V5.64447C1.22244 3.20612 3.20612 1.22244 5.64447 1.22244H15.2078C17.646 1.22244 19.6297 3.20612 19.6297 5.64447V15.2078Z" fill="white"/>
<path d="M10.426 4.72461C7.28204 4.72461 4.72437 7.28228 4.72437 10.4262C4.72437 13.5701 7.28204 16.1278 10.426 16.1278C13.5699 16.1278 16.1275 13.5701 16.1275 10.4262C16.1275 7.28228 13.5699 4.72461 10.426 4.72461ZM10.426 14.9053C7.95625 14.9053 5.9468 12.896 5.9468 10.4262C5.9468 7.9565 7.95625 5.94705 10.426 5.94705C12.8958 5.94705 14.9051 7.9565 14.9051 10.4262C14.9051 12.896 12.8958 14.9053 10.426 14.9053Z" fill="white"/>
<path d="M16.2639 2.69971C15.3348 2.69971 14.5791 3.45554 14.5791 4.38446C14.5791 5.31354 15.3348 6.06937 16.2639 6.06937C17.1929 6.06937 17.9488 5.31354 17.9488 4.38446C17.9488 3.45538 17.1929 2.69971 16.2639 2.69971ZM16.2639 4.84677C16.009 4.84677 15.8015 4.63932 15.8015 4.38446C15.8015 4.12944 16.009 3.92215 16.2639 3.92215C16.5189 3.92215 16.7263 4.12944 16.7263 4.38446C16.7263 4.63932 16.5189 4.84677 16.2639 4.84677Z" fill="white"/>
</g>
<defs>
<clipPath id="clip0_187:215">
<rect width="20.8521" height="20.8521" fill="white"/>
</clipPath>
</defs>
</svg>
