<svg width="21" height="21" viewBox="0 0 21 21" fill="none" xmlns="http://www.w3.org/2000/svg">
<g clip-path="url(#clip0_187:219)">
<path d="M20.3257 20.3308V20.3299H20.3308V12.8736C20.3308 9.22591 19.5455 6.41602 15.2811 6.41602C13.2311 6.41602 11.8554 7.54099 11.2938 8.60751H11.2345V6.75656H7.19116V20.3299H11.4013V13.6089C11.4013 11.8393 11.7368 10.1281 13.9283 10.1281C16.0876 10.1281 16.1198 12.1476 16.1198 13.7224V20.3308H20.3257Z" fill="white"/>
<path d="M0.335693 6.75732H4.55095V20.3307H0.335693V6.75732Z" fill="white"/>
<path d="M2.44139 0C1.09363 0 0 1.09363 0 2.44139C0 3.78916 1.09363 4.90566 2.44139 4.90566C3.78916 4.90566 4.88279 3.78916 4.88279 2.44139C4.88194 1.09363 3.78831 0 2.44139 0V0Z" fill="white"/>
</g>
<defs>
<clipPath id="clip0_187:219">
<rect width="20.3308" height="20.3308" fill="white"/>
</clipPath>
</defs>
</svg>
