<svg width="21" height="21" viewBox="0 0 21 21" fill="none" xmlns="http://www.w3.org/2000/svg">
<g clip-path="url(#clip0_187:223)">
<path d="M0.36831 10.054L5.17306 11.8473L7.03279 17.8282C7.15179 18.2112 7.6202 18.3528 7.9311 18.0986L10.6093 15.9153C10.8901 15.6865 11.29 15.6751 11.5834 15.8881L16.414 19.3952C16.7465 19.637 17.2177 19.4547 17.3011 19.0528L20.8398 2.03116C20.9309 1.59215 20.4995 1.22592 20.0815 1.38759L0.36268 8.99451C-0.123939 9.18218 -0.119699 9.87114 0.36831 10.054ZM6.73308 10.8927L16.1233 5.10921C16.2921 5.00557 16.4657 5.23376 16.3208 5.36819L8.57112 12.5719C8.29872 12.8255 8.12301 13.1648 8.07324 13.5331L7.80925 15.4895C7.77429 15.7507 7.40736 15.7766 7.33529 15.5238L6.32 11.9564C6.20371 11.5495 6.37317 11.1148 6.73308 10.8927Z" fill="white"/>
</g>
<defs>
<clipPath id="clip0_187:223">
<rect width="20.8521" height="20.8521" fill="white"/>
</clipPath>
</defs>
</svg>
