<svg width="21" height="21" viewBox="0 0 21 21" fill="none" xmlns="http://www.w3.org/2000/svg">
<g clip-path="url(#clip0_187:226)">
<path d="M20.8521 3.96079C20.0767 4.30094 19.2504 4.52641 18.389 4.63588C19.2752 4.10676 19.9516 3.27528 20.2696 2.27307C19.4433 2.7657 18.531 3.11367 17.5588 3.30786C16.7742 2.47247 15.656 1.95508 14.4362 1.95508C12.0695 1.95508 10.1641 3.87608 10.1641 6.23107C10.1641 6.56992 10.1928 6.89573 10.2632 7.2059C6.70917 7.03257 3.56441 5.32921 1.45183 2.73443C1.08301 3.37433 0.866667 4.10676 0.866667 4.89523C0.866667 6.37573 1.62907 7.68811 2.76551 8.44791C2.0787 8.43488 1.40491 8.23548 0.834085 7.92139C0.834085 7.93443 0.834085 7.95137 0.834085 7.96831C0.834085 10.0457 2.31589 11.7712 4.25905 12.1687C3.91108 12.2639 3.53183 12.3095 3.13825 12.3095C2.86456 12.3095 2.58827 12.2938 2.32892 12.2365C2.88281 13.9294 4.45454 15.174 6.32341 15.2144C4.86897 16.3522 3.02226 17.0377 1.02306 17.0377C0.672481 17.0377 0.336241 17.022 0 16.979C1.89363 18.2002 4.13785 18.8974 6.558 18.8974C14.4245 18.8974 18.7252 12.3811 18.7252 6.73282C18.7252 6.54385 18.7187 6.36139 18.7096 6.18024C19.558 5.57814 20.2709 4.82616 20.8521 3.96079Z" fill="white"/>
</g>
<defs>
<clipPath id="clip0_187:226">
<rect width="20.8521" height="20.8521" fill="white"/>
</clipPath>
</defs>
</svg>
