<svg width="29" height="29" viewBox="0 0 29 29" fill="none" xmlns="http://www.w3.org/2000/svg">
<g clip-path="url(#clip0_187:54)">
<path d="M0 11.8387H6.36233L0 7.1748V11.8387Z" fill="#303F86"/>
<path d="M17.1338 19.7344V25.5185H25.0243L17.1338 19.7344Z" fill="#303F86"/>
<path d="M20.3197 13.5378H17.4456H15.4346V12.5627V10.4559V4.61698V3.48145H13.5654V4.61698V10.4559V12.5627V13.5378H11.5544H8.68035H7.08008H0V15.4071H7.08008H8.68035H11.5545H13.5654V16.3823V18.4891V21.156V25.5188H15.4346V21.156V18.4891V16.3823V15.4071H17.4455H20.3197H23.6191H29V13.5378H23.6191H20.3197Z" fill="#303F86"/>
<path d="M0 21.7699L6.36233 17.106H0V21.7699Z" fill="#303F86"/>
<path d="M11.8658 25.5185V19.7344L3.97534 25.5185H11.8658Z" fill="#303F86"/>
<path d="M29 21.7699V17.106H22.6377L29 21.7699Z" fill="#303F86"/>
<path d="M22.6377 11.8387H29V7.1748L22.6377 11.8387Z" fill="#303F86"/>
<path d="M11.8662 17.6275V17.106H9.23644L0 23.8767V25.5185H1.10155L11.8662 17.6275Z" fill="#303F86"/>
<path d="M19.7635 17.106H17.1338V17.6275L27.8984 25.5185H28.9999V23.8767L19.7635 17.106Z" fill="#303F86"/>
<path d="M9.23639 11.8386H11.8662V11.3171L1.17705 3.48145H0V5.06789L9.23639 11.8386Z" fill="#303F86"/>
<path d="M17.1338 11.3171V11.8386H19.7636L28.9999 5.06789V3.48145H27.8229L17.1338 11.3171Z" fill="#303F86"/>
<path d="M11.8658 9.21025V3.48145H4.05078L11.8658 9.21025Z" fill="#303F86"/>
<path d="M17.1338 3.48145V9.21025L24.9488 3.48145H17.1338Z" fill="#303F86"/>
</g>
<defs>
<clipPath id="clip0_187:54">
<rect width="29" height="29" fill="white"/>
</clipPath>
</defs>
</svg>
