<svg width="34" height="34" viewBox="0 0 34 34" fill="none" xmlns="http://www.w3.org/2000/svg">
<g clip-path="url(#clip0_187:41)">
<path d="M33.8738 16.5975C33.6061 16.2079 27.1715 7.08301 16.9997 7.08301C8.27143 7.08301 0.493809 16.1555 0.166554 16.5423C-0.0558436 16.8058 -0.0558436 17.1925 0.166554 17.4574C0.493809 17.8442 8.27143 26.9167 16.9997 26.9167C25.7279 26.9167 33.5055 17.8442 33.8327 17.4574C34.0382 17.2138 34.0566 16.861 33.8738 16.5975ZM16.9997 25.5C10.0027 25.5 3.34985 18.8274 1.65979 16.9999C3.34706 15.1709 9.99277 8.49974 16.9997 8.49974C25.1867 8.49974 30.9654 15.1624 32.3764 16.9616C30.7472 18.731 24.0562 25.5 16.9997 25.5Z" fill="#303F86" fill-opacity="0.8"/>
<path d="M16.9997 11.333C13.8746 11.333 11.333 13.8746 11.333 16.9997C11.333 20.1249 13.8746 22.6665 16.9997 22.6665C20.1249 22.6665 22.6665 20.1249 22.6665 16.9997C22.6665 13.8746 20.1249 11.333 16.9997 11.333ZM16.9997 21.2499C14.6566 21.2499 12.7497 19.343 12.7497 16.9998C12.7497 14.6566 14.6566 12.7497 16.9997 12.7497C19.3429 12.7497 21.2498 14.6566 21.2498 16.9998C21.2498 19.343 19.3429 21.2499 16.9997 21.2499Z" fill="#303F86" fill-opacity="0.8"/>
</g>
<defs>
<clipPath id="clip0_187:41">
<rect width="34" height="34" fill="white"/>
</clipPath>
</defs>
</svg>
