<svg width="21" height="21" viewBox="0 0 21 21" fill="none" xmlns="http://www.w3.org/2000/svg">
<g clip-path="url(#clip0_187:230)">
<path d="M17.3029 11.3193C16.9658 10.8935 17.0623 10.7041 17.3029 10.3236C17.3073 10.3192 20.0902 6.47376 20.3769 5.16963L20.3786 5.16877C20.5211 4.69351 20.3786 4.34424 19.6896 4.34424H17.4098C16.8294 4.34424 16.5618 4.64399 16.4184 4.97936C16.4184 4.97936 15.2577 7.75791 13.6156 9.55901C13.0856 10.0794 12.8406 10.2463 12.5512 10.2463C12.4088 10.2463 12.1872 10.0794 12.1872 9.60419V5.16877C12.1872 4.59881 12.0247 4.34424 11.5443 4.34424H7.95943C7.59539 4.34424 7.37905 4.6101 7.37905 4.85772C7.37905 5.39814 8.2001 5.52238 8.28525 7.04285V10.3418C8.28525 11.0647 8.15405 11.1976 7.86299 11.1976C7.08799 11.1976 5.20695 8.4078 4.09223 5.21481C3.8672 4.59533 3.64739 4.34511 3.06266 4.34511H0.781955C0.131195 4.34511 0 4.64486 0 4.98023C0 5.57278 0.775004 8.51901 3.60394 12.4114C5.48932 15.0683 8.1445 16.508 10.5599 16.508C12.0117 16.508 12.1889 16.1882 12.1889 15.6383C12.1889 13.0995 12.0577 12.8597 12.785 12.8597C13.1221 12.8597 13.7025 13.0265 15.0578 14.3081C16.607 15.8277 16.8616 16.508 17.7287 16.508H20.0085C20.6584 16.508 20.9877 16.1882 20.7983 15.5575C20.3647 14.2308 17.435 11.5017 17.3029 11.3193Z" fill="white"/>
</g>
<defs>
<clipPath id="clip0_187:230">
<rect width="20.8521" height="20.8521" fill="white"/>
</clipPath>
</defs>
</svg>
