<svg width="21" height="21" viewBox="0 0 21 21" fill="none" xmlns="http://www.w3.org/2000/svg">
<g clip-path="url(#clip0_187:211)">
<path d="M19.7874 5.53969C19.5621 4.7022 18.9018 4.04202 18.0645 3.81651C16.5347 3.39795 10.4156 3.39795 10.4156 3.39795C10.4156 3.39795 4.29663 3.39795 2.76687 3.80064C1.94561 4.02591 1.2692 4.70232 1.04393 5.53969C0.641357 7.06933 0.641357 10.2416 0.641357 10.2416C0.641357 10.2416 0.641357 13.4299 1.04393 14.9435C1.26944 15.7809 1.9295 16.4411 2.76699 16.6666C4.31274 17.0853 10.4158 17.0853 10.4158 17.0853C10.4158 17.0853 16.5347 17.0853 18.0645 16.6826C18.902 16.4572 19.5621 15.797 19.7877 14.9596C20.1901 13.4299 20.1901 10.2577 20.1901 10.2577C20.1901 10.2577 20.2062 7.06933 19.7874 5.53969ZM8.46735 13.1723V7.31095L13.5557 10.2416L8.46735 13.1723Z" fill="white"/>
</g>
<defs>
<clipPath id="clip0_187:211">
<rect width="20.8521" height="20.8521" fill="white"/>
</clipPath>
</defs>
</svg>
