<svg width="28" height="28" viewBox="0 0 28 28" fill="none" xmlns="http://www.w3.org/2000/svg">
<path d="M5.67407 18.6125C8.44625 21.9138 11.7833 24.5131 15.5922 26.3523C17.0423 27.0369 18.9817 27.8491 21.1424 27.9884C21.2763 27.9942 21.4044 28 21.5384 28C22.9885 28 24.1533 27.501 25.1026 26.4741C25.1084 26.4683 25.1201 26.4567 25.1259 26.4451C25.4637 26.039 25.8481 25.6734 26.2499 25.2847C26.5236 25.0236 26.8032 24.7509 27.0711 24.4724C28.3116 23.1844 28.3116 21.5483 27.0594 20.3009L23.5593 16.8139C22.9652 16.1989 22.2547 15.874 21.5093 15.874C20.7638 15.874 20.0475 16.1989 19.4359 16.8081L17.351 18.8852C17.1588 18.775 16.9608 18.6763 16.7744 18.5835C16.5415 18.4675 16.326 18.3572 16.1338 18.2354C14.2352 17.0344 12.5113 15.4679 10.8632 13.4546C10.0304 12.4045 9.47126 11.5226 9.08106 10.6233C9.6285 10.1301 10.141 9.61376 10.636 9.10899C10.8108 8.92913 10.9913 8.74927 11.1718 8.56942C11.8008 7.94281 12.1386 7.21757 12.1386 6.48073C12.1386 5.74389 11.8066 5.01865 11.1718 4.39204L9.43631 2.66308C9.23248 2.46001 9.04029 2.26274 8.84228 2.05968C8.4579 1.66515 8.05605 1.25901 7.66002 0.893494C7.06016 0.307501 6.35547 0 5.61001 0C4.87038 0 4.15986 0.307501 3.5367 0.899296L1.35856 3.06921C0.566514 3.85827 0.118073 4.81558 0.0248908 5.92375C-0.0857633 7.3104 0.170488 8.78409 0.834413 10.5653C1.8536 13.3212 3.3911 15.8798 5.67407 18.6125ZM1.44592 6.04559C1.51581 5.27393 1.81283 4.62992 2.37192 4.07294L4.53841 1.91463C4.8762 1.58972 5.24893 1.42147 5.61001 1.42147C5.96527 1.42147 6.32635 1.58972 6.65831 1.92623C7.04851 2.28595 7.41542 2.66307 7.81145 3.06341C8.00946 3.26647 8.21329 3.46954 8.41713 3.67841L10.1527 5.40738C10.5137 5.76709 10.7001 6.13262 10.7001 6.49233C10.7001 6.85205 10.5137 7.21757 10.1527 7.57729C9.97211 7.75715 9.79157 7.94281 9.61103 8.12267C9.06941 8.66805 8.56273 9.18442 8.00363 9.67758C7.99199 9.68918 7.98616 9.69499 7.97451 9.70659C7.49113 10.1881 7.56684 10.6465 7.68332 10.9946C7.68914 11.012 7.69497 11.0236 7.70079 11.041C8.14923 12.1144 8.77239 13.1355 9.74498 14.3539C11.4921 16.5006 13.3325 18.1658 15.3592 19.448C15.6096 19.6104 15.8775 19.7381 16.128 19.8657C16.3609 19.9818 16.5764 20.092 16.7686 20.2138C16.7919 20.2254 16.8094 20.237 16.8327 20.2487C17.0249 20.3473 17.2112 20.3937 17.3976 20.3937C17.8635 20.3937 18.1663 20.0978 18.2653 19.9992L20.4435 17.8293C20.7813 17.4927 21.1482 17.3129 21.5093 17.3129C21.9519 17.3129 22.313 17.5856 22.5401 17.8293L26.0519 21.322C26.7508 22.0182 26.7449 22.7725 26.0344 23.5093C25.7898 23.7704 25.5336 24.0199 25.2598 24.281C24.8522 24.6755 24.427 25.0816 24.0427 25.54C23.3729 26.2594 22.575 26.5959 21.5442 26.5959C21.4452 26.5959 21.3404 26.5901 21.2414 26.5843C19.3311 26.4625 17.5548 25.7199 16.2212 25.0874C12.5987 23.3411 9.41884 20.8637 6.78061 17.719C4.6083 15.114 3.1465 12.6888 2.17973 10.0895C1.57987 8.49399 1.35274 7.21177 1.44592 6.04559Z" fill="#303F86" fill-opacity="0.8"/>
</svg>
